# xmcd
#
# Track frame offsets: 
#        150
#        12522
#        24371
#        33956
#        46865
#        58627
#        71999
#        85384
#        96698
#        109517
#        121314
#        132448
#        145503
#        158007
#        170946
#        184464
#        197017
#        210191
#        223133
#        235125
#        246830
#        259464
#        270726
#        281606
#        294713
#        311476
#
# Disc length: 4270 seconds
#
# Revision: 0
# Processed by: cddbd v1.5.1PL0 Copyright (c) Steve Scherf et al.
# Submitted via: ExactAudioCopy v0.95a5
#
DISCID=9010ac1a
DTITLE=Various Artist - Chicago Blues - Volume 2
DYEAR=1900
DGENRE=
TTITLE0=Gene Gilmore - Brown Skin Woman
TTITLE1=Gene Gilmore - Charity Blues
TTITLE2=Gene Gilmore - She Got Something There
TTITLE3=Gene Gilmore - The Natchez Fire
TTITLE4=Leonard "Baby Doo" Caston - I'm Gonna Walk Your Log
TTITLE5=Leonard "Baby Doo" Caston - The Death of Walter Barnes
TTITLE6=The Five Breezes - Sweet Louise
TTITLE7=The Five Breezes - Minute and Hour Blues
TTITLE8=The Five Breezes - Laundry Man
TTITLE9=The Five Breezes - Return, Gal o' Mine
TTITLE10=The Five Breezes - What's the Matter with Love?
TTITLE11=The Five Breezes - My Buddy Blues
TTITLE12=The Five Breezes - Just a Jitterbug
TTITLE13=The Five Breezes - Swingin' the Blues
TTITLE14=Ruth Ladson - Windy City Blues
TTITLE15=Ruth Ladson - What Do You Bet?
TTITLE16=Champion Jack Dupree - My Cabin Inn
TTITLE17=Champion Jack Dupree - Dupree Shake Dance
TTITLE18=Champion Jack Dupree - My Baby's Gone
TTITLE19=Champion Jack Dupree - Jackie P. Blues
TTITLE20=Champion Jack Dupree - Black Cow Blues
TTITLE21=Champion Jack Dupree - Slow Boogie
TTITLE22=Champion Jack Dupree - Jitterbug
TTITLE23=Champion Jack Dupree - Mexican Reminiscences
TTITLE24=Champion Jack Dupree - Too Evil to Cry
TTITLE25=Champion Jack Dupree - Clog Dance (Stomping Blues)
EXTD=
EXTT0=
EXTT1=
EXTT2=
EXTT3=
EXTT4=
EXTT5=
EXTT6=
EXTT7=
EXTT8=
EXTT9=
EXTT10=
EXTT11=
EXTT12=
EXTT13=
EXTT14=
EXTT15=
EXTT16=
EXTT17=
EXTT18=
EXTT19=
EXTT20=
EXTT21=
EXTT22=
EXTT23=
EXTT24=
EXTT25=
PLAYORDER=
